# xmcd
#
# Track frame offsets: 
#        150
#        16337
#        33097
#        45685
#        65100
#        77339
#        92330
#        108579
#        126611
#        142309
#        159340
#        177728
#        194091
#        202411
#        213930
#        224078
#
# Disc length: 3237 seconds
#
# Revision: 1
# Processed by: cddbd v1.5.2PL0 Copyright (c) Steve Scherf et al.
# Submitted via: ExactAudioCopy v0.99pb4
#
DISCID=fd0ca310
DTITLE=Zangeres Zonder Naam - Zangeres Zonder Naam Vol. 2
DYEAR=2008
DGENRE=Chanson
TTITLE0=Mexico
TTITLE1=Mandolinen In Nicosia
TTITLE2='t Was Aan De Costa Del Sol
TTITLE3=Balalaika
TTITLE4=Slavenkoor
TTITLE5=Als De Witte Rozen Bloeien Gaan
TTITLE6=Keetje Tippel
TTITLE7=Kom Matroos
TTITLE8=In Hamburg
TTITLE9=Ja, Ik Weet
TTITLE10=Dat Huis
TTITLE11='s Nachts Op De Donkere Boulevard
TTITLE12='k Wil Geen Parels Uit Hawaii
TTITLE13=Hoor Ik Die Spaanse Gitaren
TTITLE14=Witte Rozen Uit Athene
TTITLE15=Sunny Boy
EXTD=
EXTT0=
EXTT1=
EXTT2=
EXTT3=
EXTT4=
EXTT5=
EXTT6=
EXTT7=
EXTT8=
EXTT9=
EXTT10=
EXTT11=
EXTT12=
EXTT13=
EXTT14=
EXTT15=
PLAYORDER=
